<svg width="294" height="232" viewBox="0 0 294 232" fill="none" xmlns="http://www.w3.org/2000/svg">
<path d="M44.9681 137.041C44.8053 136.821 44.6463 136.599 44.4822 136.381C42.634 133.926 40.6726 131.555 38.603 129.284C38.6545 124.709 38.5451 107.406 33.9087 108.297C29.6278 109.119 35.2157 122.819 37.5994 128.218C36.6963 127.257 35.7754 126.313 34.8322 125.391C31.7043 121.331 21.1874 108.255 18.1047 111.795C15.2485 115.075 27.7478 122.312 33.2409 125.267C34.261 126.24 35.2634 127.232 36.2371 128.251C30.943 125.607 17.7441 119.497 16.5707 123.672C15.2987 128.199 32.5572 129.157 37.2464 129.333C39.6817 131.96 41.9694 134.725 44.107 137.602C39.3656 134.599 26.2424 126.758 24.6276 130.898C22.8976 135.333 40.4379 137.987 44.8275 138.577C47.135 141.761 49.2605 145.079 51.2092 148.496C46.6764 144.655 35.3531 135.628 33.2256 139.397C30.9157 143.487 47.4148 148.516 51.9476 149.809C52.2618 150.376 52.5753 150.944 52.8799 151.517C54.4242 154.425 55.8507 157.402 57.1628 160.431C53.0542 156.405 42.0845 146.233 39.66 149.901C37.0582 153.838 53.3264 160.047 57.6703 161.619C59.6133 166.236 61.2675 170.975 62.6114 175.791C59.1013 171.221 49.6815 159.635 46.7686 162.924C43.6401 166.457 58.88 174.888 62.9618 177.054C63.0159 177.258 63.0776 177.459 63.1304 177.663C63.5609 179.314 63.9801 180.981 64.2726 182.664C64.3845 183.308 65.3882 183.153 65.2762 182.508C64.9849 180.835 64.6097 179.17 64.1836 177.515C66.2658 173.328 73.611 157.852 69.0719 156.64C64.9417 155.536 63.9591 169.713 63.7276 175.825C62.9535 173.07 62.046 170.348 61.0971 167.681C60.4172 165.771 59.689 163.877 58.9181 161.999C60.3504 157.7 65.5586 141.12 60.8617 140.552C56.5745 140.034 57.6538 154.496 58.2796 160.474C56.7774 156.948 55.1129 153.488 53.2819 150.119C54.4102 145.732 58.4469 128.826 53.7214 128.588C49.3622 128.369 51.5418 143.035 52.5715 148.832C50.5764 145.268 48.3942 141.81 46.02 138.488C46.5358 133.718 48.0336 116.866 43.3845 117.294C39.1544 117.681 43.0601 131.168 44.9681 137.041Z" fill="#EB725F"/>
<path d="M264.297 109.167C264.412 108.919 264.531 108.673 264.644 108.425C265.918 105.628 267.064 102.772 268.07 99.8692C272.114 97.7284 287.261 89.365 284.264 85.7182C281.496 82.35 272.131 93.8049 268.527 98.4789C268.94 97.226 269.33 95.9661 269.689 94.6966C271.761 90.0093 278.224 74.5227 273.641 73.5064C269.395 72.5645 269.009 87.0029 269.039 93.2395C268.671 94.6012 268.278 95.9553 267.849 97.2979C267.642 91.3837 266.703 76.8695 262.474 77.8337C257.889 78.8793 265.294 94.4976 267.381 98.7015C266.236 102.096 264.901 105.426 263.394 108.679C263.767 103.078 264.385 87.8036 259.976 88.3633C255.253 88.9631 261.303 105.639 262.881 109.778C261.187 113.326 259.287 116.779 257.217 120.123C258.426 114.306 260.945 100.046 256.618 99.9773C251.921 99.9023 255.387 116.799 256.417 121.398C256.069 121.945 255.719 122.492 255.362 123.034C253.546 125.78 251.611 128.456 249.578 131.055C251.152 125.523 254.846 111.026 250.465 110.649C245.763 110.244 248.082 127.501 248.776 132.069C245.649 135.981 242.277 139.699 238.687 143.18C241.025 137.913 246.702 124.102 242.421 123.115C237.823 122.055 237.698 139.47 237.745 144.092C237.593 144.237 237.445 144.387 237.291 144.53C236.047 145.697 234.782 146.862 233.444 147.923C232.932 148.33 233.547 149.138 234.06 148.731C235.391 147.675 236.674 146.55 237.924 145.385C242.598 145.213 259.701 144.272 258.598 139.706C257.594 135.55 244.671 141.46 239.191 144.177C241.242 142.181 243.199 140.083 245.089 137.975C246.441 136.466 247.757 134.92 249.039 133.346C253.5 132.551 270.553 129.204 268.808 124.807C267.215 120.793 255.025 128.651 250.073 132.057C252.454 129.053 254.697 125.937 256.782 122.719C261.175 121.615 277.955 117.083 275.907 112.818C274.017 108.884 262.175 117.806 257.575 121.48C259.752 118.024 261.747 114.455 263.531 110.783C267.968 108.957 283.487 102.221 280.89 98.3415C278.526 94.8098 268.545 104.685 264.297 109.167Z" fill="#EB725F"/>
<path d="M78.6997 122.437C78.6997 122.437 80.3686 118.887 81.2202 114.203C81.0777 112.734 80.8742 111.307 80.6039 109.925C80.3737 108.717 80.0862 107.547 79.772 106.396C78.9299 107.838 77.8729 109.341 76.6925 110.314C76.6925 110.314 78.0154 107.504 78.9077 103.585C77.9925 100.934 76.8521 98.4388 75.514 96.0786C75.0822 97.5001 74.5072 98.9438 73.7497 100.027C73.7497 100.027 74.2178 97.4657 74.2216 93.9366C73.9647 93.5346 73.7122 93.1295 73.4438 92.7352C71.9518 90.5607 70.2708 88.5153 68.3991 86.6016C68.2471 88.2132 67.943 89.9215 67.3567 91.2476C67.3567 91.2476 67.3516 88.5369 66.6933 84.9493C64.798 83.2098 62.7158 81.5988 60.4154 80.1373C60.4809 81.6917 60.4192 83.3294 60.0586 84.665C60.0586 84.665 59.7024 82.2647 58.6905 79.079C56.6369 77.8916 54.4083 76.8244 51.9864 75.8901C52.2625 77.1773 52.4386 78.4983 52.3757 79.6577C52.3757 79.6577 51.7104 77.8082 50.4085 75.3088C48.6576 74.7008 46.7891 74.1741 44.7952 73.734C42.767 73.2857 40.6249 72.9161 38.1242 72.7921C37.3438 75.1714 36.9221 77.3039 36.6143 79.3582C36.3116 81.3775 36.1341 83.3109 36.075 85.1636C37.9429 87.2745 39.4312 88.5579 39.4312 88.5579C38.3258 88.2018 37.1556 87.5638 36.0527 86.8452C36.0585 89.4407 36.2563 91.9039 36.6302 94.2463C39.2416 96.3324 41.3557 97.5242 41.3557 97.5242C39.9794 97.3824 38.4282 96.8539 37.0004 96.2357C37.541 98.9069 38.2997 101.428 39.2455 103.821C42.3593 105.72 44.888 106.695 44.888 106.695C43.4405 106.768 41.7367 106.44 40.1772 106.005C41.294 108.437 42.6016 110.739 44.0975 112.911C44.3697 113.303 44.6572 113.684 44.9408 114.068C48.2372 115.328 50.7965 115.808 50.7965 115.808C49.5137 116.128 47.9599 116.148 46.478 116.041C48.2022 118.136 50.1242 120.095 52.2714 121.898C56.2502 122.469 59.3469 122.24 59.3469 122.24C58.0151 122.994 56.233 123.443 54.5858 123.712C55.5474 124.418 56.5357 125.105 57.582 125.752C58.7757 126.499 60.035 127.201 61.356 127.86C66.0344 128.742 69.9464 128.455 69.9464 128.455C68.7826 129.114 67.274 129.539 65.8131 129.817C66.229 129.976 66.6494 130.131 67.0762 130.282C68.8513 130.905 70.744 131.446 72.7684 131.897C74.7921 132.348 76.9265 132.724 79.4171 132.854C80.1873 130.482 80.6014 128.354 80.9041 126.303C81.2081 124.252 81.3805 122.291 81.4352 120.41C81.4466 119.957 81.4523 119.509 81.453 119.064C80.6688 120.331 79.7319 121.587 78.6997 122.437Z" fill="#6E7FDD"/>
<mask id="mask0_7031_1384" style="mask-type:luminance" maskUnits="userSpaceOnUse" x="36" y="72" width="46" height="61">
<path d="M78.6997 122.437C78.6997 122.437 80.3686 118.887 81.2202 114.203C81.0777 112.734 80.8742 111.307 80.6039 109.925C80.3737 108.717 80.0862 107.547 79.772 106.396C78.9299 107.838 77.8729 109.341 76.6925 110.314C76.6925 110.314 78.0154 107.504 78.9077 103.585C77.9925 100.934 76.8521 98.4388 75.514 96.0786C75.0822 97.5001 74.5072 98.9438 73.7497 100.027C73.7497 100.027 74.2178 97.4657 74.2216 93.9366C73.9647 93.5346 73.7122 93.1295 73.4438 92.7352C71.9518 90.5607 70.2708 88.5153 68.3991 86.6016C68.2471 88.2132 67.943 89.9215 67.3567 91.2476C67.3567 91.2476 67.3516 88.5369 66.6933 84.9493C64.798 83.2098 62.7158 81.5988 60.4154 80.1373C60.4809 81.6917 60.4192 83.3294 60.0586 84.665C60.0586 84.665 59.7024 82.2647 58.6905 79.079C56.6369 77.8916 54.4083 76.8244 51.9864 75.8901C52.2625 77.1773 52.4386 78.4983 52.3757 79.6577C52.3757 79.6577 51.7104 77.8082 50.4085 75.3088C48.6576 74.7008 46.7891 74.1741 44.7952 73.734C42.767 73.2857 40.6249 72.9161 38.1242 72.7921C37.3438 75.1714 36.9221 77.3039 36.6143 79.3582C36.3116 81.3775 36.1341 83.3109 36.075 85.1636C37.9429 87.2745 39.4312 88.5579 39.4312 88.5579C38.3258 88.2018 37.1556 87.5638 36.0527 86.8452C36.0585 89.4407 36.2563 91.9039 36.6302 94.2463C39.2416 96.3324 41.3557 97.5242 41.3557 97.5242C39.9794 97.3824 38.4282 96.8539 37.0004 96.2357C37.541 98.9069 38.2997 101.428 39.2455 103.821C42.3593 105.72 44.888 106.695 44.888 106.695C43.4405 106.768 41.7367 106.44 40.1772 106.005C41.294 108.437 42.6016 110.739 44.0975 112.911C44.3697 113.303 44.6572 113.684 44.9408 114.068C48.2372 115.328 50.7965 115.808 50.7965 115.808C49.5137 116.128 47.9599 116.148 46.478 116.041C48.2022 118.136 50.1242 120.095 52.2714 121.898C56.2502 122.469 59.3469 122.24 59.3469 122.24C58.0151 122.994 56.233 123.443 54.5858 123.712C55.5474 124.418 56.5357 125.105 57.582 125.752C58.7757 126.499 60.035 127.201 61.356 127.86C66.0344 128.742 69.9464 128.455 69.9464 128.455C68.7826 129.114 67.274 129.539 65.8131 129.817C66.229 129.976 66.6494 130.131 67.0762 130.282C68.8513 130.905 70.744 131.446 72.7684 131.897C74.7921 132.348 76.9265 132.724 79.4171 132.854C80.1873 130.482 80.6014 128.354 80.9041 126.303C81.2081 124.252 81.3805 122.291 81.4352 120.41C81.4466 119.957 81.4523 119.509 81.453 119.064C80.6688 120.331 79.7319 121.587 78.6997 122.437Z" fill="white"/>
</mask>
<g mask="url(#mask0_7031_1384)">
<path d="M72.4178 87.6027L71.7665 87.5282C71.7615 87.6427 71.2101 98.9177 63.6976 109.431L58.0544 101.223C65.7894 90.4653 64.824 76.6412 64.8132 76.5019L64.1638 76.5089C64.174 76.6456 65.1095 90.0792 57.6435 100.626L52.623 93.3235C60.3275 82.4867 53.0402 67.2036 52.9651 67.0497L52.3864 67.3149C52.4589 67.465 59.4822 82.2145 52.2102 92.7237L46.8271 84.8939C49.6579 74.1315 42.3134 60.5606 42.2383 60.4238L41.6755 60.7215C41.7473 60.8531 48.7205 73.7487 46.3221 84.16L35.2334 68.031L34.7094 68.391L45.798 84.52C35.2188 83.0311 25.675 71.903 25.5777 71.7885L25.0981 72.207C25.1986 72.3259 35.2398 84.043 46.3024 85.2539L51.6855 93.0837C39.2695 96.1098 28.0129 84.2707 27.8985 84.1498L27.4437 84.595C27.5607 84.7203 39.2212 96.9964 52.0982 93.6841L57.1188 100.987C44.6062 104.179 32.3899 98.4967 32.2665 98.4382L32.0274 99.0424C32.1533 99.1028 44.7156 104.954 57.5297 101.584L63.1729 109.792C50.6755 113.039 39.9411 109.519 39.8324 109.483L39.6689 110.118C39.7789 110.155 50.8065 113.779 63.5831 110.389L67.8284 116.564C55.3368 119.867 46.0753 118.509 45.9825 118.495L45.9291 119.157C46.0238 119.171 55.5078 120.568 68.2374 117.159L72.8675 123.893C62.4008 126.648 54.6461 125.518 54.5678 125.506L54.5151 126.168C54.5952 126.181 62.5719 127.351 73.2777 124.49L77.1357 130.101C70.5632 131.852 65.7328 131.209 65.6838 131.202L65.6381 131.865C65.8454 131.894 70.7394 132.553 77.5446 130.697L85.0628 141.631L85.5868 141.272L78.0687 130.337C82.2383 124.648 83.3767 119.842 83.4232 119.638L82.7878 119.443C82.7763 119.492 81.6474 124.232 77.6591 129.741L73.8011 124.13C80.3055 115.158 82.0698 107.291 82.0863 107.212L81.4496 107.024C81.4331 107.102 79.7108 114.747 73.3909 123.533L68.7608 116.798C76.5016 106.133 78.594 96.7782 78.6144 96.6841L77.9777 96.4971C77.9574 96.5887 75.9088 105.722 68.3512 116.203L64.1059 110.028C71.848 99.3127 72.4134 87.719 72.4178 87.6027Z" fill="#B3C9F9"/>
</g>
<path opacity="0.1" d="M74.221 93.9379C73.964 93.5359 73.7116 93.1308 73.4432 92.7364C71.9511 90.562 70.2702 88.5166 68.3984 86.6029C68.2464 88.2145 67.9424 89.9228 67.356 91.2488C67.356 91.2488 67.3509 88.5382 66.6927 84.9505C64.7974 83.2111 62.7151 81.6001 60.4147 80.1386C60.4802 81.6929 60.4185 83.3306 60.0579 84.6662C60.0579 84.6662 59.7017 82.266 58.6899 79.0803C56.6362 77.8928 54.4077 76.8256 51.9858 75.8914C52.2618 77.1786 52.438 78.4996 52.375 79.659C52.375 79.659 51.7098 77.8095 50.4079 75.31C48.657 74.702 46.7884 74.1754 44.7945 73.7353C42.7663 73.2869 40.6243 72.9174 38.1235 72.7934L79.4165 132.855C80.1867 130.483 80.6007 128.356 80.9034 126.305C81.2075 124.253 81.3798 122.292 81.4345 120.411C81.4459 119.959 81.4517 119.51 81.4523 119.065C80.6694 120.33 79.7326 121.586 78.701 122.437C78.701 122.437 80.3698 118.888 81.2214 114.203C81.079 112.734 80.8755 111.307 80.6052 109.925C80.3749 108.717 80.0875 107.547 79.7733 106.396C78.9312 107.838 77.8742 109.341 76.6938 110.314C76.6938 110.314 78.0166 107.504 78.909 103.585C77.9937 100.934 76.8534 98.4388 75.5153 96.0786C75.0834 97.5001 74.5085 98.9438 73.751 100.027C73.7491 100.028 74.2172 97.4664 74.221 93.9379Z" fill="#0046A0"/>
<path d="M251.657 177.968C251.657 177.968 255.571 178.22 260.242 177.296C261.557 176.626 262.81 175.913 263.997 175.156C265.038 174.499 266.02 173.803 266.975 173.089C265.325 172.833 263.539 172.401 262.201 171.658C262.201 171.658 265.3 171.86 269.274 171.254C271.405 169.431 273.309 167.456 275.015 165.346C273.535 165.465 271.98 165.459 270.695 165.151C270.695 165.151 273.25 164.648 276.535 163.359C276.814 162.972 277.099 162.589 277.368 162.195C278.844 160.009 280.131 157.696 281.226 155.254C279.671 155.703 277.97 156.046 276.522 155.987C276.522 155.987 279.042 154.989 282.139 153.062C283.064 150.661 283.8 148.133 284.316 145.457C282.894 146.088 281.347 146.63 279.973 146.784C279.973 146.784 282.076 145.574 284.669 143.464C285.022 141.119 285.197 138.654 285.18 136.058C284.084 136.786 282.919 137.435 281.817 137.801C281.817 137.801 283.294 136.505 285.143 134.377C285.067 132.525 284.872 130.593 284.551 128.576C284.225 126.525 283.784 124.396 282.983 122.024C280.483 122.169 278.345 122.558 276.32 123.025C274.33 123.483 272.466 124.026 270.721 124.65C269.441 127.161 268.793 129.016 268.793 129.016C268.719 127.857 268.884 126.534 269.148 125.245C266.735 126.201 264.515 127.288 262.473 128.494C261.489 131.688 261.154 134.091 261.154 134.091C260.782 132.759 260.706 131.122 260.757 129.567C258.47 131.048 256.402 132.678 254.523 134.435C253.896 138.028 253.915 140.738 253.915 140.738C253.317 139.418 252.998 137.712 252.831 136.101C250.977 138.032 249.314 140.092 247.842 142.28C247.577 142.676 247.328 143.084 247.075 143.488C247.11 147.017 247.601 149.574 247.601 149.574C246.833 148.498 246.246 147.059 245.802 145.641C244.485 148.013 243.367 150.519 242.475 153.178C243.401 157.089 244.75 159.887 244.75 159.887C243.56 158.924 242.49 157.431 241.635 155.997C241.331 157.15 241.054 158.321 240.835 159.532C240.577 160.916 240.386 162.345 240.256 163.816C241.15 168.492 242.85 172.027 242.85 172.027C241.811 171.185 240.863 169.937 240.069 168.679C240.073 169.125 240.083 169.573 240.099 170.025C240.17 171.904 240.359 173.864 240.682 175.913C241.003 177.962 241.436 180.085 242.227 182.45C244.717 182.297 246.848 181.903 248.867 181.434C250.888 180.965 252.775 180.407 254.545 179.769C254.97 179.613 255.389 179.454 255.804 179.292C254.339 179.028 252.827 178.617 251.657 177.968Z" fill="#6E7FDD"/>
<mask id="mask1_7031_1384" style="mask-type:luminance" maskUnits="userSpaceOnUse" x="240" y="122" width="46" height="61">
<path d="M251.657 177.968C251.657 177.968 255.571 178.22 260.242 177.296C261.557 176.626 262.81 175.913 263.997 175.156C265.038 174.499 266.02 173.803 266.975 173.089C265.325 172.833 263.539 172.401 262.201 171.658C262.201 171.658 265.3 171.86 269.274 171.254C271.405 169.431 273.309 167.456 275.015 165.346C273.535 165.465 271.98 165.459 270.695 165.151C270.695 165.151 273.25 164.648 276.535 163.359C276.814 162.972 277.099 162.589 277.368 162.195C278.844 160.009 280.131 157.696 281.226 155.254C279.671 155.703 277.97 156.046 276.522 155.987C276.522 155.987 279.042 154.989 282.139 153.062C283.064 150.661 283.8 148.133 284.316 145.457C282.894 146.088 281.347 146.63 279.973 146.784C279.973 146.784 282.076 145.574 284.669 143.464C285.022 141.119 285.197 138.654 285.18 136.058C284.084 136.786 282.919 137.435 281.817 137.801C281.817 137.801 283.294 136.505 285.143 134.377C285.067 132.525 284.872 130.593 284.551 128.576C284.225 126.525 283.784 124.396 282.983 122.024C280.483 122.169 278.345 122.558 276.32 123.025C274.33 123.483 272.466 124.026 270.721 124.65C269.441 127.161 268.793 129.016 268.793 129.016C268.719 127.857 268.884 126.534 269.148 125.245C266.735 126.201 264.515 127.288 262.473 128.494C261.489 131.688 261.154 134.091 261.154 134.091C260.782 132.759 260.706 131.122 260.757 129.567C258.47 131.048 256.402 132.678 254.523 134.435C253.896 138.028 253.915 140.738 253.915 140.738C253.317 139.418 252.998 137.712 252.831 136.101C250.977 138.032 249.314 140.092 247.842 142.28C247.577 142.676 247.328 143.084 247.075 143.488C247.11 147.017 247.601 149.574 247.601 149.574C246.833 148.498 246.246 147.059 245.802 145.641C244.485 148.013 243.367 150.519 242.475 153.178C243.401 157.089 244.75 159.887 244.75 159.887C243.56 158.924 242.49 157.431 241.635 155.997C241.331 157.15 241.054 158.321 240.835 159.532C240.577 160.916 240.386 162.345 240.256 163.816C241.15 168.492 242.85 172.027 242.85 172.027C241.811 171.185 240.863 169.937 240.069 168.679C240.073 169.125 240.083 169.573 240.099 170.025C240.17 171.904 240.359 173.864 240.682 175.913C241.003 177.962 241.436 180.085 242.227 182.45C244.717 182.297 246.848 181.903 248.867 181.434C250.888 180.965 252.775 180.407 254.545 179.769C254.97 179.613 255.389 179.454 255.804 179.292C254.339 179.028 252.827 178.617 251.657 177.968Z" fill="white"/>
</mask>
<g mask="url(#mask1_7031_1384)">
<path d="M281.768 159.361L281.599 158.727C281.491 158.764 270.798 162.382 258.262 159.244L263.832 150.986C276.676 154.242 289.186 148.279 289.311 148.218L289.067 147.616C288.944 147.676 276.787 153.469 264.238 150.386L269.193 143.039C282.1 146.237 293.65 133.858 293.766 133.731L293.307 133.29C293.193 133.412 282.043 145.351 269.6 142.435L274.914 134.558C285.965 133.248 295.901 121.443 296.001 121.323L295.518 120.908C295.422 121.024 285.978 132.236 275.412 133.819L286.357 117.592L285.83 117.236L274.885 133.463C272.394 123.074 279.252 110.117 279.323 109.985L278.757 109.692C278.684 109.83 271.461 123.465 274.387 134.202L269.074 142.079C261.709 131.635 268.601 116.824 268.672 116.673L268.091 116.413C268.017 116.567 260.866 131.915 268.667 142.683L263.712 150.03C256.157 139.556 256.968 126.108 256.977 125.972L256.328 125.971C256.318 126.11 255.476 139.942 263.307 150.631L257.736 158.889C250.136 148.449 249.479 137.172 249.472 137.058L248.822 137.138C248.827 137.255 249.496 148.842 257.331 159.488L253.141 165.701C245.491 155.288 243.362 146.173 243.34 146.082L242.705 146.274C242.726 146.368 244.901 155.704 252.737 166.299L248.168 173.075C241.77 164.345 239.98 156.716 239.963 156.639L239.327 156.832C239.345 156.911 241.179 164.762 247.763 173.676L243.955 179.321C239.918 173.847 238.746 169.117 238.735 169.069L238.101 169.27C238.15 169.473 239.331 174.268 243.551 179.92L236.131 190.921L236.658 191.277L244.078 180.275C250.899 182.071 255.788 181.369 255.995 181.338L255.944 180.676C255.895 180.683 251.07 181.369 244.483 179.677L248.291 174.032C259.022 176.797 266.988 175.556 267.068 175.542L267.009 174.881C266.93 174.894 259.187 176.093 248.696 173.431L253.265 166.656C266.025 169.951 275.496 168.471 275.591 168.455L275.532 167.794C275.439 167.809 266.19 169.249 253.67 166.057L257.86 159.845C270.664 163.121 281.658 159.399 281.768 159.361Z" fill="#B3C9F9"/>
</g>
<path opacity="0.1" d="M276.534 163.359C276.814 162.972 277.098 162.59 277.367 162.195C278.844 160.01 280.13 157.697 281.226 155.255C279.67 155.704 277.969 156.046 276.521 155.987C276.521 155.987 279.041 154.989 282.138 153.062C283.063 150.661 283.799 148.133 284.315 145.458C282.893 146.089 281.346 146.63 279.972 146.785C279.972 146.785 282.075 145.575 284.668 143.465C285.021 141.119 285.197 138.654 285.18 136.059C284.083 136.787 282.919 137.435 281.816 137.801C281.816 137.801 283.293 136.505 285.142 134.377C285.066 132.526 284.872 130.594 284.551 128.577C284.224 126.525 283.784 124.397 282.982 122.024L242.226 182.451C244.715 182.299 246.847 181.904 248.866 181.435C250.886 180.966 252.774 180.408 254.543 179.77C254.969 179.615 255.388 179.456 255.803 179.293C254.339 179.028 252.827 178.617 251.657 177.968C251.657 177.968 255.571 178.22 260.242 177.296C261.557 176.625 262.81 175.913 263.997 175.156C265.037 174.499 266.02 173.803 266.975 173.089C265.325 172.833 263.539 172.401 262.201 171.658C262.201 171.658 265.3 171.86 269.274 171.254C271.404 169.431 273.309 167.456 275.015 165.346C273.534 165.465 271.98 165.459 270.695 165.151C270.695 165.151 273.249 164.648 276.534 163.359Z" fill="#0046A0"/>
<path d="M147 231.065C227.686 231.065 293.095 226.206 293.095 220.212C293.095 214.219 227.686 209.36 147 209.36C66.3142 209.36 0.905273 214.219 0.905273 220.212C0.905273 226.206 66.3142 231.065 147 231.065Z" fill="#EDF0FC"/>
<path d="M255.383 48.1605H69.9995V214.464H255.383V48.1605Z" fill="#F5F9FF"/>
<path d="M255.383 48.1605H69.9995V67.8269H255.383V48.1605Z" fill="#D0DBF7"/>
<path d="M84.9564 57.9936C84.9564 60.0797 83.2653 61.7715 81.1786 61.7715C79.0925 61.7715 77.4014 60.0803 77.4014 57.9936C77.4014 55.9069 79.0925 54.2164 81.1786 54.2164C83.2653 54.2158 84.9564 55.9069 84.9564 57.9936Z" fill="#EB725F"/>
<path d="M97.6766 57.9936C97.6766 60.0797 95.9855 61.7715 93.8988 61.7715C91.8127 61.7715 90.1216 60.0803 90.1216 57.9936C90.1216 55.9069 91.8127 54.2164 93.8988 54.2164C95.9855 54.2158 97.6766 55.9069 97.6766 57.9936Z" fill="#F9AB43"/>
<path d="M110.396 57.9936C110.396 60.0797 108.705 61.7715 106.619 61.7715C104.532 61.7715 102.841 60.0803 102.841 57.9936C102.841 55.9069 104.532 54.2164 106.619 54.2164C108.705 54.2164 110.396 55.9069 110.396 57.9936Z" fill="#6E7FDD"/>
<path d="M228.218 124.605C229.106 122.352 227.852 120.509 225.43 120.509H136.2C133.778 120.509 131.07 122.352 130.182 124.605L110.403 174.765C109.514 177.017 110.769 178.86 113.19 178.86H202.421C204.842 178.86 207.551 177.017 208.439 174.765L228.218 124.605Z" fill="#FFCF74"/>
<path d="M106.126 170.487L125.905 120.327C126.793 118.075 129.501 116.232 131.922 116.232H201.97V111.787C201.97 109.365 199.988 107.384 197.567 107.384H166.321C163.899 107.384 160.973 105.643 159.817 103.515L155.563 95.6773C154.408 93.5492 151.481 91.8079 149.06 91.8079H108.913C106.491 91.8079 104.51 93.789 104.51 96.2103V170.178C104.51 172.304 106.039 174.09 108.051 174.494C106.208 174.108 105.35 172.454 106.126 170.487Z" fill="#FFCF74"/>
<path d="M170.958 134.39C161.77 134.39 154.321 141.838 154.321 151.026C154.321 160.215 161.769 167.663 170.958 167.663C180.146 167.663 187.594 160.215 187.594 151.026C187.594 141.839 180.145 134.39 170.958 134.39ZM179.098 156.769L176.701 159.166L170.958 153.424L165.215 159.166L162.818 156.769L168.561 151.026L162.818 145.284L165.215 142.887L170.958 148.63L176.701 142.887L179.098 145.284L173.355 151.026L179.098 156.769Z" fill="#EB725F"/>
<path d="M67.2912 222.946C93.9344 222.946 115.533 219.417 115.533 215.063C115.533 210.71 93.9344 207.181 67.2912 207.181C40.6479 207.181 19.0493 210.71 19.0493 215.063C19.0493 219.417 40.6479 222.946 67.2912 222.946Z" fill="#EB725F"/>
<path d="M80.852 116.051H67.2918H53.731L32.9097 213.337C50.1796 217.059 67.2918 217.059 67.2918 217.059C67.2918 217.059 84.4034 217.059 101.673 213.337L80.852 116.051Z" fill="#FFCF74"/>
<path d="M67.2911 118.115C74.7802 118.115 80.8513 117.191 80.8513 116.051C80.8513 114.911 74.7802 113.987 67.2911 113.987C59.802 113.987 53.731 114.911 53.731 116.051C53.731 117.191 59.802 118.115 67.2911 118.115Z" fill="#EB725F"/>
<mask id="mask2_7031_1384" style="mask-type:luminance" maskUnits="userSpaceOnUse" x="32" y="116" width="70" height="102">
<path d="M80.852 116.051H67.2918H53.731L32.9097 213.337C50.1796 217.059 67.2918 217.059 67.2918 217.059C67.2918 217.059 84.4034 217.059 101.673 213.337L80.852 116.051Z" fill="white"/>
</mask>
<g mask="url(#mask2_7031_1384)">
<path d="M66.7009 209.06C38.7869 209.06 19.9365 204.394 18.7656 204.097L22.649 188.803L20.7073 196.45L22.6408 188.8C23.0408 188.901 63.2735 198.761 112.371 188.72L115.534 204.18C97.6544 207.836 80.9887 209.06 66.7009 209.06Z" fill="#F9AB43"/>
<path d="M66.7009 174.729C38.7869 174.729 19.9365 170.063 18.7656 169.766L22.649 154.472L20.7073 162.119L22.6408 154.47C23.0408 154.57 63.2735 164.43 112.371 154.389L115.534 169.849C97.6544 173.505 80.9887 174.729 66.7009 174.729Z" fill="#F9AB43"/>
<path d="M66.7009 140.398C38.7869 140.398 19.9365 135.733 18.7656 135.436L22.649 120.142L20.7073 127.788L22.6408 120.139C23.0408 120.24 63.2735 130.1 112.371 120.058L115.534 135.518C97.6544 139.175 80.9887 140.398 66.7009 140.398Z" fill="#F9AB43"/>
</g>
<path opacity="0.1" d="M84.2417 162.991C84.2417 184.145 79.8629 203.253 72.8198 216.901C79.2498 216.606 90.4256 215.761 101.673 213.337L80.8519 116.051H75.9941C81.1533 128.908 84.2417 145.227 84.2417 162.991Z" fill="#0046A0"/>
<g opacity="0.3">
<path d="M55.2042 131.061C54.7087 133.452 54.2133 135.842 53.7172 138.233C52.5266 143.975 51.336 149.718 50.1454 155.459C48.6979 162.44 47.251 169.421 45.8035 176.402C44.5582 182.409 43.3129 188.417 42.067 194.424C41.464 197.332 40.7199 200.249 40.2512 203.183C40.2448 203.224 40.234 203.265 40.2257 203.306C39.7271 205.711 43.4744 206.393 43.9718 203.996C44.4672 201.606 44.9633 199.215 45.4588 196.824C46.6493 191.082 47.8399 185.34 49.0305 179.598C50.4781 172.617 51.925 165.635 53.3725 158.655C54.6178 152.648 55.8637 146.64 57.109 140.633C57.7119 137.725 58.456 134.808 58.9248 131.874C58.9311 131.833 58.942 131.791 58.9502 131.751C59.4482 129.346 55.7009 128.664 55.2042 131.061Z" fill="white"/>
</g>
<path d="M245.368 188.349L155.441 214.019L157.018 219.543L246.945 193.872L245.368 188.349Z" fill="#6E7FDD"/>
<path d="M245.368 188.348L204.359 200.055L205.936 205.578L246.944 193.872L245.368 188.348Z" fill="#EB725F"/>
<path d="M248.6 219.772C264.442 218.425 276.192 204.492 274.845 188.651C273.499 172.809 259.565 161.059 243.724 162.406C227.883 163.752 216.133 177.686 217.479 193.527C218.826 209.368 232.759 221.118 248.6 219.772Z" fill="#EB725F"/>
<path d="M267.34 200.529C272.551 188.839 267.3 175.139 255.61 169.928C243.921 164.717 230.221 169.968 225.009 181.657C219.798 193.347 225.05 207.047 236.739 212.258C248.428 217.47 262.129 212.218 267.34 200.529Z" fill="#D0DBF7"/>
<path d="M263.575 186.127L260.814 186.915C258.506 178.834 250.054 174.136 241.973 176.444L241.184 173.682C250.788 170.94 260.833 176.523 263.575 186.127Z" fill="white"/>
<path d="M224.702 47.1123L197.15 38.7591L180.583 93.4068L223.395 106.386L235.466 66.5695L224.702 47.1123Z" fill="#E2E6FF"/>
<path d="M221.919 68.7128L219.95 65.0304L211.129 69.747L206.412 60.9263L202.73 62.8953L207.447 71.716L198.626 76.4326L200.594 80.115L209.416 75.3978L214.133 84.2191L217.815 82.2501L213.098 73.4294L221.919 68.7128Z" fill="#CAD2F9"/>
<path d="M151.588 9.69391L123.615 16.508L137.13 71.9895L180.596 61.4013L170.749 20.9778L151.588 9.69391Z" fill="#E2E6FF"/>
<path d="M160.172 29.7094L156.605 27.54L151.406 36.086L142.86 30.8879L140.69 34.4553L149.237 39.6533L144.038 48.1999L147.606 50.3693L152.804 41.8233L161.351 47.0214L163.52 43.454L154.974 38.256L160.172 29.7094Z" fill="#CAD2F9"/>
<path d="M249.611 14.6897H242.5V7.57855H239.969V14.6897H232.858V17.2203H239.969V24.3308H242.5V17.2203H249.611V14.6897Z" fill="#E2E6FF"/>
<path d="M265.537 39.1566H261.664V35.2833H260.285V39.1566H256.412V40.5348H260.285V44.408H261.664V40.5348H265.537V39.1566Z" fill="#E2E6FF"/>
<path d="M222.793 32.3985H218.103V27.7086H216.433V32.3985H211.743V34.068H216.433V38.7585H218.103V34.068H222.793V32.3985Z" fill="#E2E6FF"/>
<path d="M45.2161 31.6671H38.105V24.5566H35.5743V31.6671H28.4639V34.1983H35.5743V41.3088H38.105V34.1983H45.2161V31.6671Z" fill="#E2E6FF"/>
<path d="M76.2537 27.423H72.3805V23.5498H71.0017V27.423H67.1284V28.8013H71.0017V32.6745H72.3805V28.8013H76.2537V27.423Z" fill="#E2E6FF"/>
<path d="M52.6719 59.0087H47.9814V54.3182H46.3119V59.0087H41.6221V60.6775H46.3119V65.368H47.9814V60.6775H52.6719V59.0087Z" fill="#E2E6FF"/>
<path d="M208.393 2.91923C208.393 3.77083 207.703 4.46089 206.852 4.46089C206 4.46089 205.31 3.77083 205.31 2.91923C205.31 2.06826 206 1.37756 206.852 1.37756C207.703 1.37756 208.393 2.06763 208.393 2.91923Z" fill="#CAD2F9"/>
<path d="M278.005 58.3447C278.005 59.957 276.698 61.264 275.086 61.264C273.473 61.264 272.167 59.957 272.167 58.3447C272.167 56.7325 273.473 55.4255 275.086 55.4255C276.698 55.4255 278.005 56.7325 278.005 58.3447Z" fill="#CAD2F9"/>
<path d="M185.601 18.9954C185.601 19.847 184.911 20.5371 184.059 20.5371C183.208 20.5371 182.518 19.847 182.518 18.9954C182.518 18.1438 183.208 17.4537 184.059 17.4537C184.911 17.4537 185.601 18.1438 185.601 18.9954Z" fill="#CAD2F9"/>
<path d="M97.8116 2.91924C97.8116 4.5315 96.5046 5.83848 94.8924 5.83848C93.2801 5.83848 91.9731 4.5315 91.9731 2.91924C91.9731 1.30698 93.2801 0 94.8924 0C96.5046 0 97.8116 1.30698 97.8116 2.91924Z" fill="#CAD2F9"/>
<path d="M109.154 33.8689C109.154 34.7205 108.464 35.4106 107.612 35.4106C106.76 35.4106 106.07 34.7205 106.07 33.8689C106.07 33.0173 106.76 32.3273 107.612 32.3273C108.464 32.3279 109.154 33.018 109.154 33.8689Z" fill="#CAD2F9"/>
<path d="M19.0784 63.7215C19.0784 64.5731 18.3884 65.2631 17.5368 65.2631C16.6852 65.2631 15.9951 64.5731 15.9951 63.7215C15.9951 62.8699 16.6852 62.1798 17.5368 62.1798C18.3884 62.1798 19.0784 62.8699 19.0784 63.7215Z" fill="#CAD2F9"/>
</svg>
